<svg width="960" height="960" viewBox="0 0 960 960" fill="none" xmlns="http://www.w3.org/2000/svg">
<g clip-path="url(#clip0_348_1422)">
<path d="M705 777.828C717.777 797.44 725.084 822.146 721.866 855.744C718.575 890.08 706.912 920.653 623.649 920.653C616.688 920.614 609.736 920.17 602.827 919.322L602.936 918.322C605.057 887.954 615.621 858.783 633.438 834.1C651.255 809.416 675.615 790.203 703.77 778.627L705 777.828Z" fill="#171717"/>
<path d="M705 777.828L703.766 778.628C675.613 790.205 651.255 809.418 633.44 834.1C615.625 858.782 605.061 887.952 602.94 918.318L602.831 919.318C541.37 912.071 451.053 876.09 393.669 834.518L394.117 833.901C402.925 815.378 408.055 794.919 407.292 774.424C406.529 753.929 399.658 733.457 386.567 717.693C373.476 701.929 353.949 691.221 333.478 690.277H332.607C332.45 625.961 339.613 545.807 345.107 494.077C349.172 485.596 361.32 482.136 369.207 487.363C375.268 491.379 378.707 499.316 385.722 501.191C397.796 504.422 407.705 487.169 420.045 489.165C430.305 490.823 435.52 504.978 445.9 505.317C454.5 505.595 461.266 495.844 469.819 496.817C478.857 497.833 483.926 510.27 493.013 509.956C499.885 509.726 504.736 502.067 511.596 501.729C520.319 501.293 525.05 512.267 533.196 515.436C540.225 518.183 547.944 514.553 554.913 511.65C561.882 508.747 570.775 506.822 576.28 511.988L577.344 512.097C572.13 563.311 569.262 630.846 584.591 665.436C604.852 711.165 672.544 728.054 705 777.828Z" fill="url(#paint0_linear_348_1422)"/>
<path d="M608.566 279.558L582.372 313.845L581.804 315.781L549.561 306.393L549.633 254.223L565.579 285.172L579.529 256.498V289.527L608.566 279.558Z" fill="#171717"/>
<path d="M591.023 94.6533C597.508 112.87 597.319 132.797 590.49 150.888L590.236 150.788C590.236 150.788 541.261 176.026 518.661 124.122C572.4 148.177 590.793 95.3183 591.023 94.6533Z" fill="url(#paint1_linear_348_1422)"/>
<path d="M590.236 150.792L590.49 150.892C586.47 161.487 580.286 171.128 572.333 179.202C564.381 187.275 554.834 193.603 544.3 197.783L544.215 197.577C544.215 197.577 488.936 178.752 515.844 122.808C516.799 123.279 517.731 123.715 518.663 124.126C541.261 176.03 590.236 150.792 590.236 150.792Z" fill="#171717"/>
<path d="M579.9 321.286C613.6 336.24 585.5 379.348 585.5 379.348L585.476 380.848L498.656 379.348C498.98 373.36 498.725 367.355 497.893 361.417C497.76 360.401 497.593 359.361 497.409 358.296L498.801 358.066C499.881 353.877 501.457 349.832 503.495 346.016C509.472 334.51 522.248 318.624 547.643 316.592C553.486 316.159 559.359 316.39 565.15 317.281C570.225 317.943 575.187 319.29 579.9 321.286V321.286Z" fill="#171717"/>
<path d="M578.61 488.936L579.94 489.106C579.069 496.22 578.174 503.951 577.34 512.093L576.276 511.984C570.776 506.818 561.876 508.73 554.909 511.646C547.942 514.562 540.221 518.179 533.192 515.432C525.05 512.263 520.319 501.289 511.592 501.725C504.732 502.063 499.881 509.725 493.009 509.952C483.922 510.266 478.853 497.829 469.815 496.813C461.262 495.845 454.498 505.596 445.896 505.313C435.516 504.974 430.296 490.819 420.041 489.161C407.701 487.161 397.792 504.418 385.718 501.187C378.7 499.312 375.264 491.375 369.203 487.359C361.315 482.132 349.167 485.592 345.103 494.073C345.803 487.407 346.483 481.212 347.112 475.573L347.947 475.673C349.03 472.923 350.746 470.467 352.956 468.504C355.165 466.541 357.806 465.126 360.664 464.373C363.522 463.62 366.517 463.551 369.407 464.171C372.297 464.791 375 466.083 377.298 467.942C382.149 471.862 385.537 478.442 391.719 479.363C401.119 480.763 407.109 468.051 416.534 466.863C423.188 466.016 428.934 471.134 433.883 475.647C438.832 480.16 445.341 484.733 451.717 482.664C458.226 480.535 461.771 472.138 468.594 471.57C478.419 470.747 483.875 486.681 493.594 485.12C499.051 484.237 502.245 478.043 507.58 476.591C513.654 474.933 519.328 479.954 523.672 484.503C528.016 489.052 533.822 494.003 539.835 492.15C544.457 490.722 547.022 485.81 551.063 483.172C555.237 480.438 560.718 480.39 565.485 481.866C570.252 483.342 574.472 486.154 578.61 488.936Z" fill="#171717"/>
<path d="M552.355 50.0576C570.352 59.5857 584.143 75.4915 591.023 94.6576C590.793 95.3226 572.403 148.182 518.661 124.13C518.237 123.199 517.838 122.243 517.451 121.251C574.956 109.959 553.771 53.6636 552.355 50.0576Z" fill="#171717"/>
<path d="M552.355 50.0575C553.771 53.6635 574.955 109.958 517.455 121.247C517.334 120.932 517.213 120.618 517.08 120.291C545.439 63.3545 480.832 47.8315 480.832 47.8315C492.14 42.7427 504.459 40.2983 516.853 40.684C529.247 41.0697 541.39 44.2754 552.359 50.0575H552.355Z" fill="url(#paint2_linear_348_1422)"/>
<path d="M544.213 197.576L544.298 197.782C536.538 200.864 528.346 202.717 520.016 203.275C518.14 203.42 516.253 203.475 514.341 203.475C512.041 203.475 509.78 203.375 507.53 203.185C493.36 202.031 479.746 197.157 468.064 189.054L468.112 188.993C468.112 188.993 450.618 132.045 513.93 121.858C514.063 121.918 514.208 121.991 514.341 122.064C514.85 122.318 515.341 122.572 515.841 122.802C488.934 178.751 544.213 197.576 544.213 197.576Z" fill="url(#paint3_linear_348_1422)"/>
<path d="M480.828 47.8311C480.828 47.8311 545.435 63.3541 517.076 120.29C516.713 119.322 516.35 118.342 515.999 117.326C495.08 57.208 439.705 91.7261 438.459 92.5111C446.214 72.662 461.418 56.6287 480.828 47.8311V47.8311Z" fill="#171717"/>
<path d="M517.076 120.29C516.991 120.484 516.894 120.69 516.785 120.89C516.701 121.059 516.604 121.241 516.531 121.41C515.757 121.555 514.971 121.688 514.16 121.822L513.93 121.858C456.836 93.2694 441.278 158.021 441.278 158.021C436.301 147.891 433.48 136.837 432.993 125.561C432.506 114.284 434.363 103.029 438.447 92.5064H438.459C439.705 91.7204 495.08 57.2064 515.999 117.321C516.35 118.342 516.713 119.322 517.076 120.29Z" fill="url(#paint4_linear_348_1422)"/>
<path d="M497.9 361.417C498.732 367.355 498.987 373.36 498.663 379.348L410.427 377.823C410.427 377.823 406.761 324.262 444.945 317.076V317.064C448.211 316.477 451.528 316.218 454.845 316.289C460.646 316.305 466.387 317.456 471.745 319.677C482.525 324.287 489.045 333.082 492.978 342.519C495.044 347.595 496.533 352.887 497.418 358.296C497.6 359.361 497.766 360.401 497.9 361.417Z" fill="url(#paint5_linear_348_1422)"/>
<path d="M495.552 256.22L472.698 306.393L472.553 307.155L444.944 302.122L432.917 249.384L448.15 263.261L456.05 240.636L470.786 265.608L495.552 256.22Z" fill="url(#paint6_linear_348_1422)"/>
<path d="M441.277 158.027C441.277 158.027 456.835 93.2746 513.929 121.864C450.617 132.051 468.111 189.001 468.111 189.001L468.063 189.062C456.645 181.158 447.427 170.478 441.277 158.027Z" fill="#171717"/>
<path d="M474.199 307.456L471.743 319.664V319.676C466.385 317.455 460.644 316.304 454.843 316.288C451.526 316.217 448.209 316.476 444.943 317.063V302.121L472.552 307.154L474.199 307.456Z" fill="#171717"/>
<path d="M407.292 774.429C408.055 794.929 402.925 815.383 394.117 833.906L393.669 834.523C368.831 816.532 350.175 797.501 342.669 779.304C335.386 761.64 332.688 728.792 332.603 690.282H333.474C353.945 691.226 373.461 701.921 386.563 717.698C399.665 733.475 406.53 753.946 407.292 774.429Z" fill="#171717"/>
<path d="M398.715 258.434C401.037 271.101 401.691 285.172 401.388 299.073L400.888 299.061L368.718 321.261L368.403 321.249C369.135 308.754 369.035 296.224 368.103 283.743L368.72 283.682L397.478 258.638L398.715 258.434Z" fill="url(#paint7_linear_348_1422)"/>
<path d="M396.766 344.467L397.504 344.576C394.818 363.668 391.781 377.001 391.781 377.001L391.769 377.501L362.732 377.001C362.732 377.001 363.579 371.701 364.644 363.233L364.886 363.257L396.766 344.467Z" fill="url(#paint8_linear_348_1422)"/>
<path d="M379.248 219.463L377.699 220.636L356.357 249.359C354.627 247.986 352.558 247.108 350.368 246.818C346.236 246.194 342.014 246.653 338.112 248.149L337.834 246.54L330.72 218.071L328.288 217.708C338.015 212.651 349.679 210.316 363.604 212.663C369.307 213.579 374.688 215.917 379.248 219.463Z" fill="url(#paint9_linear_348_1422)"/>
<path d="M321.61 264.193L322.795 264.749C318.041 275.299 316.686 287.434 316.323 292.177L314.786 292.092L292 264.471L291.141 264.12C294.397 255.926 298.531 248.109 303.47 240.806L303.954 241.132L321.61 264.193Z" fill="url(#paint10_linear_348_1422)"/>
<path d="M585.482 380.848L608.251 381.235C614.363 381.341 620.183 383.871 624.431 388.268C628.678 392.665 631.005 398.569 630.9 404.682L630.585 422.903C630.479 429.016 627.95 434.838 623.553 439.087C619.156 443.337 613.252 445.666 607.138 445.564L586.365 445.201L351.215 441.148L346.981 441.075C340.866 440.966 335.044 438.435 330.795 434.036C326.545 429.637 324.216 423.731 324.32 417.616L324.634 399.395C324.743 393.281 327.276 387.461 331.675 383.213C336.074 378.966 341.98 376.64 348.094 376.746L362.733 377L391.77 377.5L410.426 377.826L498.662 379.351L585.482 380.848Z" stroke="#171717" stroke-width="3.63" stroke-linecap="round" stroke-linejoin="round"/>
<path d="M351.215 441.147C351.215 441.147 349.497 454.322 347.115 475.579C346.486 481.217 345.808 487.412 345.106 494.079C339.614 545.813 332.451 625.967 332.606 690.279C332.691 728.789 335.389 761.637 342.672 779.301C350.172 797.501 368.83 816.529 393.672 834.52C451.056 876.091 541.372 912.072 602.834 919.32C609.743 920.168 616.695 920.612 623.656 920.651C706.919 920.651 718.582 890.078 721.873 855.742C725.091 822.142 717.784 797.442 705.007 777.826C672.547 728.052 604.855 711.163 584.589 665.426C569.26 630.836 572.128 563.301 577.342 512.087C578.177 503.945 579.072 496.214 579.942 489.1C583.185 463.063 586.367 445.194 586.367 445.194" stroke="#171717" stroke-width="3.63" stroke-linecap="round" stroke-linejoin="round"/>
<path d="M391.782 377.001C391.782 377.001 394.819 363.669 397.505 344.577C399.66 329.496 400.956 314.305 401.388 299.077C401.688 285.177 401.037 271.105 398.715 258.438C395.654 241.814 389.701 227.622 379.248 219.468C374.688 215.922 369.307 213.584 363.604 212.668C349.679 210.321 338.015 212.656 328.288 217.713C317.944 223.113 309.801 231.591 303.474 240.813C298.535 248.117 294.401 255.933 291.145 264.127C287.992 271.795 285.519 279.726 283.753 287.827L316.202 294.227C316.202 294.227 316.226 293.477 316.323 292.183C316.686 287.44 318.041 275.305 322.795 264.755C326.05 257.532 330.901 251.047 338.112 248.155C342.013 246.659 346.236 246.2 350.368 246.824C352.557 247.114 354.627 247.992 356.357 249.365C363.302 254.773 366.726 267.888 368.105 283.749C369.038 296.23 369.138 308.76 368.405 321.255C367.619 337.394 365.961 352.748 364.643 363.237C363.58 371.701 362.733 377.001 362.733 377.001" stroke="#171717" stroke-width="3.63" stroke-linecap="round" stroke-linejoin="round"/>
<path d="M444.943 317.064C448.209 316.477 451.526 316.218 454.843 316.289C460.644 316.305 466.385 317.456 471.743 319.677C482.523 324.287 489.043 333.082 492.976 342.519C495.042 347.595 496.531 352.887 497.416 358.296C497.598 359.361 497.767 360.396 497.9 361.417C498.732 367.355 498.988 373.36 498.663 379.348" stroke="#171717" stroke-width="3.63" stroke-linecap="round" stroke-linejoin="round"/>
<path d="M410.426 377.822C410.426 377.822 406.76 324.261 444.944 317.075" stroke="#171717" stroke-width="3.63" stroke-linecap="round" stroke-linejoin="round"/>
<path d="M585.506 379.348C585.506 379.348 613.599 336.24 579.906 321.286C575.193 319.29 570.232 317.943 565.158 317.281C559.367 316.39 553.494 316.159 547.651 316.592C522.256 318.624 509.48 334.51 503.503 346.016C501.465 349.832 499.889 353.877 498.809 358.066" stroke="#171717" stroke-width="3.63" stroke-linecap="round" stroke-linejoin="round"/>
<path d="M471.741 319.664L474.197 307.456L472.552 307.154L444.943 302.121V317.063V317.075" stroke="#171717" stroke-width="3.63" stroke-linecap="round" stroke-linejoin="round"/>
<path d="M579.903 321.298V321.286L583.509 316.277L581.803 315.781L549.56 306.393L547.648 316.592" stroke="#171717" stroke-width="3.63" stroke-linecap="round" stroke-linejoin="round"/>
<path d="M438.459 92.5115C445.339 74.8061 458.194 60.064 474.798 50.8373C491.401 41.6106 510.709 38.4804 529.377 41.9885C548.046 45.4965 564.9 55.4221 577.021 70.0467C589.143 84.6714 595.769 103.074 595.753 122.069C595.77 131.916 593.987 141.683 590.49 150.888C586.47 161.484 580.286 171.126 572.334 179.2C564.381 187.274 554.834 193.603 544.3 197.782C536.54 200.864 528.348 202.717 520.018 203.275C518.142 203.42 516.255 203.475 514.343 203.475C512.043 203.475 509.782 203.375 507.532 203.185C493.362 202.032 479.748 197.157 468.066 189.054C456.648 181.151 447.43 170.472 441.28 158.021C436.303 147.891 433.482 136.838 432.995 125.561C432.508 114.284 434.365 103.029 438.449 92.5065" stroke="#171717" stroke-width="3.63" stroke-linecap="round" stroke-linejoin="round"/>
<path d="M503.488 346.015L520.027 203.48" stroke="#171717" stroke-width="3.63" stroke-linecap="round" stroke-linejoin="round"/>
<path d="M507.506 203.48L492.975 342.518" stroke="#171717" stroke-width="3.63" stroke-linecap="round" stroke-linejoin="round"/>
<path d="M441.277 158.027C441.277 158.027 456.835 93.2746 513.929 121.864C514.062 121.924 514.207 121.997 514.34 122.07C514.849 122.324 515.34 122.578 515.84 122.808C516.795 123.279 517.727 123.715 518.659 124.126C572.401 148.178 590.791 95.3186 591.021 94.6536V94.6416" stroke="#171717" stroke-width="3.63" stroke-linecap="round" stroke-linejoin="round"/>
<path d="M480.828 47.8311C480.828 47.8311 545.435 63.3541 517.076 120.29C516.991 120.484 516.894 120.69 516.785 120.89C516.701 121.059 516.604 121.241 516.531 121.41C516.289 121.882 516.059 122.342 515.842 122.802C488.934 178.746 544.213 197.571 544.213 197.571" stroke="#171717" stroke-width="3.63" stroke-linecap="round" stroke-linejoin="round"/>
<path d="M552.283 49.877L552.355 50.058C553.771 53.664 574.955 109.958 517.455 121.247C517.155 121.307 516.85 121.368 516.535 121.416C515.761 121.561 514.975 121.694 514.164 121.828L513.934 121.864C450.618 132.051 468.112 189.001 468.112 189.001" stroke="#171717" stroke-width="3.63" stroke-linecap="round" stroke-linejoin="round"/>
<path d="M438.434 92.5243L438.447 92.5113H438.459C439.705 91.7253 495.08 57.2113 515.999 117.326C516.35 118.342 516.713 119.326 517.076 120.29C517.209 120.617 517.33 120.931 517.451 121.246C517.838 122.238 518.237 123.194 518.661 124.125C541.261 176.025 590.236 150.791 590.236 150.791" stroke="#171717" stroke-width="3.63" stroke-linecap="round" stroke-linejoin="round"/>
<path d="M472.698 306.393L495.552 256.22L470.786 265.608L456.05 240.636L448.15 263.261L432.917 249.384L444.944 302.122" stroke="#171717" stroke-width="3.63" stroke-linecap="round" stroke-linejoin="round"/>
<path d="M582.372 313.845L608.566 279.558L579.529 289.527V256.498L565.579 285.172L549.633 254.223L549.561 306.393" stroke="#171717" stroke-width="3.63" stroke-linecap="round" stroke-linejoin="round"/>
<path d="M347.949 475.676C349.033 472.926 350.749 470.47 352.958 468.507C355.168 466.544 357.808 465.129 360.666 464.376C363.525 463.623 366.52 463.554 369.41 464.174C372.299 464.794 375.003 466.086 377.3 467.945C382.151 471.865 385.539 478.445 391.721 479.366C401.121 480.766 407.111 468.054 416.536 466.866C423.19 466.019 428.936 471.137 433.885 475.65C438.834 480.163 445.343 484.736 451.719 482.667C458.228 480.538 461.773 472.141 468.596 471.573C478.421 470.75 483.877 486.684 493.596 485.123C499.053 484.24 502.247 478.046 507.582 476.594C513.656 474.936 519.33 479.957 523.674 484.506C528.018 489.055 533.824 494.006 539.837 492.153C544.459 490.725 547.024 485.813 551.065 483.175C555.239 480.441 560.72 480.393 565.487 481.869C570.254 483.345 574.476 486.152 578.614 488.934" stroke="#171717" stroke-width="3.63" stroke-linecap="round" stroke-linejoin="round"/>
<path d="M344.814 494.671C344.894 494.466 344.991 494.267 345.104 494.078C349.169 485.597 361.317 482.137 369.204 487.364C375.265 491.38 378.704 499.317 385.719 501.192C397.793 504.423 407.702 487.17 420.042 489.166C430.302 490.824 435.517 504.979 445.897 505.318C454.497 505.596 461.263 495.845 469.816 496.818C478.854 497.834 483.923 510.271 493.01 509.957C499.882 509.727 504.733 502.068 511.593 501.73C520.316 501.294 525.047 512.268 533.193 515.437C540.222 518.184 547.941 514.554 554.91 511.651C561.879 508.748 570.772 506.823 576.277 511.989" stroke="#171717" stroke-width="3.63" stroke-linecap="round" stroke-linejoin="round"/>
<path d="M394.117 833.906C402.925 815.383 408.055 794.924 407.292 774.429C406.529 753.934 399.658 733.462 386.567 717.698C373.476 701.934 353.949 691.226 333.478 690.282" stroke="#171717" stroke-width="3.63" stroke-linecap="round" stroke-linejoin="round"/>
<path d="M602.939 918.319C605.06 887.952 615.625 858.782 633.441 834.099C651.257 809.417 675.616 790.204 703.769 778.628" stroke="#171717" stroke-width="3.63" stroke-linecap="round" stroke-linejoin="round"/>
<path d="M364.887 363.256L396.767 344.467" stroke="#171717" stroke-width="3.63" stroke-linecap="round" stroke-linejoin="round"/>
<path d="M368.722 321.262L400.892 299.061" stroke="#171717" stroke-width="3.63" stroke-linecap="round" stroke-linejoin="round"/>
<path d="M368.722 283.683L397.48 258.639" stroke="#171717" stroke-width="3.63" stroke-linecap="round" stroke-linejoin="round"/>
<path d="M356.345 249.384L356.357 249.36L377.699 220.637" stroke="#171717" stroke-width="3.63" stroke-linecap="round" stroke-linejoin="round"/>
<path d="M337.834 246.54L330.72 218.071" stroke="#171717" stroke-width="3.63" stroke-linecap="round" stroke-linejoin="round"/>
<path d="M321.61 264.193L303.958 241.132" stroke="#171717" stroke-width="3.63" stroke-linecap="round" stroke-linejoin="round"/>
<path d="M314.786 292.092L292.004 264.471" stroke="#171717" stroke-width="3.63" stroke-linecap="round" stroke-linejoin="round"/>
<path d="M234.899 655.333C236.677 641.562 252.421 632.249 265.999 635.169C279.577 638.089 289.655 650.905 291.899 664.608C294.143 678.311 289.57 692.456 281.999 704.097C278.206 709.931 273.499 715.413 267.299 718.585C261.099 721.757 253.199 722.242 247.374 718.439C241.549 714.636 238.903 706.039 242.774 700.248C245.599 696.023 251.127 694.148 256.174 694.732C261.221 695.316 265.818 698.001 269.691 701.292C274.727 705.573 279.033 711.762 278.119 718.308C276.595 729.208 263.033 733.032 255.151 740.716C251.53 744.245 249.044 748.776 248.012 753.727C246.98 758.678 247.45 763.824 249.36 768.507C251.271 773.189 254.535 777.195 258.736 780.012C262.936 782.828 267.882 784.327 272.939 784.316C278.07 784.305 283.458 782.505 286.587 778.44C289.716 774.375 289.759 767.83 285.836 764.523" stroke="#171717" stroke-width="3.63" stroke-linecap="round" stroke-linejoin="round"/>
<path d="M674.712 608.428C662.762 620.852 655.299 636.908 653.505 654.052C652.166 667.235 654.83 681.752 664.538 690.769C674.246 699.786 692.123 700.159 699.438 689.11C703.721 682.639 701.306 671.285 693.56 670.81C689.936 670.586 686.59 672.868 684.211 675.61C681.653 678.557 679.869 682.094 679.016 685.901C678.163 689.709 678.27 693.669 679.326 697.425C680.382 701.182 682.354 704.617 685.066 707.423C687.777 710.229 691.143 712.317 694.862 713.501C706.87 717.325 720.314 711.201 732.382 714.828C737.51 716.504 741.951 719.809 745.031 724.239C748.11 728.67 749.659 733.984 749.444 739.376C749.038 745.739 745.279 752.452 739.065 753.876C732.851 755.3 725.712 748.482 728.52 742.758" stroke="#171717" stroke-width="3.63" stroke-linecap="round" stroke-linejoin="round"/>
<path d="M715.547 215.881C706.697 224.902 700.583 237.132 700.955 249.764C701.327 262.396 709.078 275.064 720.996 279.264C732.914 283.464 748.096 277.249 751.954 265.217C752.976 262.033 753.185 258.407 751.598 255.463C750.011 252.519 746.264 250.623 743.169 251.887C740.403 253.017 739.029 256.063 737.916 258.836C734.949 266.228 732.016 274.788 735.716 281.844C740.186 290.372 751.435 291.802 760.608 294.73C768.332 297.195 775.815 301.751 779.608 308.918C783.401 316.085 782.35 326.129 775.78 330.88C769.21 335.631 757.813 331.88 756.918 323.824" stroke="#171717" stroke-width="3.63" stroke-linecap="round" stroke-linejoin="round"/>
<path d="M334.099 117.092C338.999 123.578 342.731 131.254 343.03 139.378C343.329 147.502 339.689 156.053 332.676 160.164C325.663 164.275 315.383 162.659 311.089 155.757C309.277 152.844 308.709 148.825 310.774 146.086C313.616 142.315 320.274 143.355 322.724 147.392C325.174 151.429 323.862 156.963 320.647 160.421C317.432 163.879 312.738 165.585 308.096 166.446C303.454 167.307 298.696 167.446 294.068 168.389C288.099 169.606 282.477 172.139 277.61 175.803C272.743 179.468 268.754 184.171 265.934 189.571C263.114 194.97 261.533 200.931 261.307 207.019C261.08 213.107 262.214 219.168 264.625 224.763" stroke="#171717" stroke-width="3.63" stroke-linecap="round" stroke-linejoin="round"/>
<path d="M433.524 176.046L445.48 192.273" stroke="#171717" stroke-width="3.63" stroke-linecap="round" stroke-linejoin="round"/>
<path d="M432.671 191.418L447.189 176.899" stroke="#171717" stroke-width="3.63" stroke-linecap="round" stroke-linejoin="round"/>
<path d="M690.725 390.54L698.936 408.947" stroke="#171717" stroke-width="3.63" stroke-linecap="round" stroke-linejoin="round"/>
<path d="M686.604 405.376L703.891 394.296" stroke="#171717" stroke-width="3.63" stroke-linecap="round" stroke-linejoin="round"/>
<path d="M357.837 448.587L368.512 455.846" stroke="#171717" stroke-width="3.63" stroke-linecap="round" stroke-linejoin="round"/>
<path d="M366.377 446.879L359.118 456.273" stroke="#171717" stroke-width="3.63" stroke-linecap="round" stroke-linejoin="round"/>
<path d="M393.92 452.003L404.808 459.475" stroke="#171717" stroke-width="3.63" stroke-linecap="round" stroke-linejoin="round"/>
<path d="M402.887 450.722L393.92 460.756" stroke="#171717" stroke-width="3.63" stroke-linecap="round" stroke-linejoin="round"/>
<path d="M442.172 453.711L453.915 462.251" stroke="#171717" stroke-width="3.63" stroke-linecap="round" stroke-linejoin="round"/>
<path d="M452.207 450.935L444.307 463.532" stroke="#171717" stroke-width="3.63" stroke-linecap="round" stroke-linejoin="round"/>
<path d="M498.68 457.624L487.72 469.153" stroke="#171717" stroke-width="3.63" stroke-linecap="round" stroke-linejoin="round"/>
<path d="M487.149 455.916L498.679 468.584" stroke="#171717" stroke-width="3.63" stroke-linecap="round" stroke-linejoin="round"/>
<path d="M533.268 461.753L545.082 471.716" stroke="#171717" stroke-width="3.63" stroke-linecap="round" stroke-linejoin="round"/>
<path d="M545.935 459.19L533.979 473.139" stroke="#171717" stroke-width="3.63" stroke-linecap="round" stroke-linejoin="round"/>
<path d="M164.404 470.401L180.798 486.978L203.748 482.87L193.048 503.585L204.047 524.142L181.04 520.367L164.888 537.18L161.368 514.133L140.387 503.966L161.219 493.497L164.404 470.401Z" stroke="#171717" stroke-width="3.63" stroke-linecap="round" stroke-linejoin="round"/>
<path d="M249.521 372.047L251.653 387.588L265.664 394.641L251.543 401.471L249.164 416.976L238.305 405.657L222.824 408.185L230.233 394.36L223.044 380.418L238.483 383.192L249.521 372.047Z" stroke="#171717" stroke-width="3.63" stroke-linecap="round" stroke-linejoin="round"/>
<path d="M781.853 456.616L796.927 473.337L819.25 470.398L808.005 489.903L817.698 510.224L795.672 505.557L779.341 521.056L776.974 498.666L757.188 487.924L777.75 478.753L781.853 456.616Z" stroke="#171717" stroke-width="3.63" stroke-linecap="round" stroke-linejoin="round"/>
<path d="M701.895 300.291L710.058 311.772L724.143 311.556L715.747 322.868L720.305 336.197L706.953 331.707L695.684 340.161L695.828 326.075L684.306 317.97L697.748 313.754L701.895 300.291Z" stroke="#171717" stroke-width="3.63" stroke-linecap="round" stroke-linejoin="round"/>
<path d="M261.075 533.93L286.782 582.443" stroke="#171717" stroke-width="3.63" stroke-linecap="round" stroke-linejoin="round"/>
<path d="M251.024 573.164L296.058 541.66" stroke="#171717" stroke-width="3.63" stroke-linecap="round" stroke-linejoin="round"/>
<path d="M268.612 577.997L278.47 542.434" stroke="#171717" stroke-width="3.63" stroke-linecap="round" stroke-linejoin="round"/>
<path d="M252.378 551.518L292.193 563.501" stroke="#171717" stroke-width="3.63" stroke-linecap="round" stroke-linejoin="round"/>
<path d="M250.059 542.626L265.134 541.853L268.613 528.324" stroke="#171717" stroke-width="3.63" stroke-linecap="round" stroke-linejoin="round"/>
<path d="M287.554 534.315L287.36 547.652L302.823 551.324" stroke="#171717" stroke-width="3.63" stroke-linecap="round" stroke-linejoin="round"/>
<path d="M257.789 577.996L260.301 566.4L247.738 564.66" stroke="#171717" stroke-width="3.63" stroke-linecap="round" stroke-linejoin="round"/>
<path d="M278.664 585.729L282.336 574.132L296.059 575.678" stroke="#171717" stroke-width="3.63" stroke-linecap="round" stroke-linejoin="round"/>
<path d="M602.044 210.632L627.75 259.145" stroke="#171717" stroke-width="3.63" stroke-linecap="round" stroke-linejoin="round"/>
<path d="M591.994 249.866L637.028 218.362" stroke="#171717" stroke-width="3.63" stroke-linecap="round" stroke-linejoin="round"/>
<path d="M609.582 254.699L619.439 219.136" stroke="#171717" stroke-width="3.63" stroke-linecap="round" stroke-linejoin="round"/>
<path d="M593.347 228.22L633.162 240.203" stroke="#171717" stroke-width="3.63" stroke-linecap="round" stroke-linejoin="round"/>
<path d="M591.026 219.328L606.102 218.555L609.581 205.026" stroke="#171717" stroke-width="3.63" stroke-linecap="round" stroke-linejoin="round"/>
<path d="M628.524 211.018L628.33 224.354L643.793 228.027" stroke="#171717" stroke-width="3.63" stroke-linecap="round" stroke-linejoin="round"/>
<path d="M598.759 254.698L601.271 243.102L588.708 241.362" stroke="#171717" stroke-width="3.63" stroke-linecap="round" stroke-linejoin="round"/>
<path d="M619.633 262.429L623.305 250.833L637.028 252.379" stroke="#171717" stroke-width="3.63" stroke-linecap="round" stroke-linejoin="round"/>
<path d="M688.31 486.849L680.678 541.218" stroke="#171717" stroke-width="3.63" stroke-linecap="round" stroke-linejoin="round"/>
<path d="M657.158 512.732L712.11 513.627" stroke="#171717" stroke-width="3.63" stroke-linecap="round" stroke-linejoin="round"/>
<path d="M668.569 526.961L697.41 503.938" stroke="#171717" stroke-width="3.63" stroke-linecap="round" stroke-linejoin="round"/>
<path d="M670.949 495.992L696.169 529.05" stroke="#171717" stroke-width="3.63" stroke-linecap="round" stroke-linejoin="round"/>
<path d="M674.286 487.431L686.95 495.647L697.703 486.729" stroke="#171717" stroke-width="3.63" stroke-linecap="round" stroke-linejoin="round"/>
<path d="M709.53 502.691L701.552 513.379L711.922 525.422" stroke="#171717" stroke-width="3.63" stroke-linecap="round" stroke-linejoin="round"/>
<path d="M659.802 520.613L668.639 512.694L659.483 503.917" stroke="#171717" stroke-width="3.63" stroke-linecap="round" stroke-linejoin="round"/>
<path d="M672.176 539.119L681.951 531.88L692.159 541.181" stroke="#171717" stroke-width="3.63" stroke-linecap="round" stroke-linejoin="round"/>
<path d="M464.377 525.533L470.145 537.221L483.044 539.096L473.71 548.194L475.914 561.041L464.377 554.976L452.839 561.041L455.043 548.194L445.709 539.096L458.608 537.221L464.377 525.533Z" stroke="#171717" stroke-width="3.63" stroke-linecap="round" stroke-linejoin="round"/>
<path d="M560.454 810.284L571.556 822.861L588.211 820.846L579.68 835.291L586.744 850.508L570.369 846.859L558.08 858.279L556.491 841.578L541.832 833.419L557.224 826.747L560.454 810.284Z" stroke="#171717" stroke-width="3.63" stroke-linecap="round" stroke-linejoin="round"/>
<path d="M392.781 616.616C391.642 614.908 368.299 593.842 368.299 593.842" stroke="#171717" stroke-width="3.63" stroke-linecap="round" stroke-linejoin="round"/>
<path d="M368.868 617.753L389.365 592.702" stroke="#171717" stroke-width="3.63" stroke-linecap="round" stroke-linejoin="round"/>
<path d="M379.117 589.286L380.825 618.323" stroke="#171717" stroke-width="3.63" stroke-linecap="round" stroke-linejoin="round"/>
<path d="M366.021 604.089L390.503 602.95" stroke="#171717" stroke-width="3.63" stroke-linecap="round" stroke-linejoin="round"/>
<path d="M633.616 784.001C633.616 781.155 627.922 756.101 627.922 756.101" stroke="#171717" stroke-width="3.63" stroke-linecap="round" stroke-linejoin="round"/>
<path d="M617.104 774.324L642.724 767.492" stroke="#171717" stroke-width="3.63" stroke-linecap="round" stroke-linejoin="round"/>
<path d="M637.032 759.521L625.075 781.157" stroke="#171717" stroke-width="3.63" stroke-linecap="round" stroke-linejoin="round"/>
<path d="M618.243 761.229L639.878 777.172" stroke="#171717" stroke-width="3.63" stroke-linecap="round" stroke-linejoin="round"/>
<path d="M407.868 572.206C414.315 572.206 419.54 566.981 419.54 560.534C419.54 554.088 414.315 548.862 407.868 548.862C401.422 548.862 396.196 554.088 396.196 560.534C396.196 566.981 401.422 572.206 407.868 572.206Z" stroke="#171717" stroke-width="3.63" stroke-linecap="round" stroke-linejoin="round"/>
<path d="M544.228 760.661C554.29 760.661 562.447 752.504 562.447 742.442C562.447 732.38 554.29 724.223 544.228 724.223C534.166 724.223 526.009 732.38 526.009 742.442C526.009 752.504 534.166 760.661 544.228 760.661Z" stroke="#171717" stroke-width="3.63" stroke-linecap="round" stroke-linejoin="round"/>
<path d="M426.372 838.661C432.032 838.661 436.62 834.073 436.62 828.413C436.62 822.753 432.032 818.165 426.372 818.165C420.712 818.165 416.124 822.753 416.124 828.413C416.124 834.073 420.712 838.661 426.372 838.661Z" stroke="#171717" stroke-width="3.63" stroke-linecap="round" stroke-linejoin="round"/>
<path d="M505.064 572.096L535.892 630.275" stroke="#171717" stroke-width="3.63" stroke-linecap="round" stroke-linejoin="round"/>
<path d="M493.012 619.148L547.019 581.367" stroke="#171717" stroke-width="3.63" stroke-linecap="round" stroke-linejoin="round"/>
<path d="M514.104 624.944L525.926 582.295" stroke="#171717" stroke-width="3.63" stroke-linecap="round" stroke-linejoin="round"/>
<path d="M494.635 593.188L542.383 607.56" stroke="#171717" stroke-width="3.63" stroke-linecap="round" stroke-linejoin="round"/>
<path d="M491.853 582.526L509.933 581.598L514.105 565.373" stroke="#171717" stroke-width="3.63" stroke-linecap="round" stroke-linejoin="round"/>
<path d="M536.82 572.56L536.589 588.553L555.132 592.957" stroke="#171717" stroke-width="3.63" stroke-linecap="round" stroke-linejoin="round"/>
<path d="M501.124 624.943L504.137 611.036L489.071 608.949" stroke="#171717" stroke-width="3.63" stroke-linecap="round" stroke-linejoin="round"/>
<path d="M526.158 634.215L530.562 620.308L547.019 622.162" stroke="#171717" stroke-width="3.63" stroke-linecap="round" stroke-linejoin="round"/>
<path d="M465.5 656.568L435.768 744.955" stroke="#171717" stroke-width="3.63" stroke-linecap="round" stroke-linejoin="round"/>
<path d="M405.401 690.049L496.867 708.716" stroke="#171717" stroke-width="3.63" stroke-linecap="round" stroke-linejoin="round"/>
<path d="M441.903 653.159L460.479 670.833L481.218 659.304" stroke="#171717" stroke-width="3.63" stroke-linecap="round" stroke-linejoin="round"/>
<path d="M495.976 689.649L479.316 705.001L492.866 728.348" stroke="#171717" stroke-width="3.63" stroke-linecap="round" stroke-linejoin="round"/>
<path d="M407.354 704.034L424.582 693.574L412.039 676.059" stroke="#171717" stroke-width="3.63" stroke-linecap="round" stroke-linejoin="round"/>
<path d="M422.229 738.794L440.812 729.763L454.949 748.481" stroke="#171717" stroke-width="3.63" stroke-linecap="round" stroke-linejoin="round"/>
<path d="M444.734 718.884L435.126 696.039L456.69 682.161L467.366 702.231L444.734 718.884Z" stroke="#171717" stroke-width="3.63" stroke-linecap="round" stroke-linejoin="round"/>
<path d="M444.947 688.139L436.621 671.272" stroke="#171717" stroke-width="3.63" stroke-linecap="round" stroke-linejoin="round"/>
<path d="M463.1 691.769C463.528 691.982 476.338 683.869 476.338 683.869" stroke="#171717" stroke-width="3.63" stroke-linecap="round" stroke-linejoin="round"/>
<path d="M455.623 711.198L462.668 724.008" stroke="#171717" stroke-width="3.63" stroke-linecap="round" stroke-linejoin="round"/>
<path d="M438.542 708.637L426.159 714.828" stroke="#171717" stroke-width="3.63" stroke-linecap="round" stroke-linejoin="round"/>
<path d="M400.575 838.516C411.098 817.754 417.675 794.709 417.375 771.435C417.075 748.161 409.583 724.674 394.567 706.889C379.551 689.104 356.737 677.563 333.467 678.148" stroke="#171717" stroke-width="3.63" stroke-linecap="round" stroke-linejoin="round"/>
<path d="M590.668 915.952C590.927 883.427 601.182 851.769 620.044 825.271C638.905 798.772 665.46 778.715 696.107 767.82" stroke="#171717" stroke-width="3.63" stroke-linecap="round" stroke-linejoin="round"/>
<path d="M346.062 506.248C346.324 500.515 353.313 497.119 358.935 498.274C364.557 499.429 369.011 503.558 373.342 507.325C377.673 511.092 382.646 514.832 388.385 514.915C399.736 515.081 408.568 501.044 419.643 503.536C428.257 505.474 432.811 516.736 441.608 517.489C449.921 518.202 456.632 508.902 464.941 509.665C475.266 510.614 480.628 526.297 490.904 524.92C497.428 524.045 501.54 516.299 508.104 515.83C515.579 515.295 520.031 524.087 526.776 527.353C534.276 530.985 543.029 527.241 550.895 524.487C558.761 521.733 569.121 520.721 573.922 527.534" stroke="#171717" stroke-width="3.63" stroke-linecap="round" stroke-linejoin="round"/>
<path d="M482.268 366.026L473.868 355.098" stroke="#171717" stroke-width="3.63" stroke-linecap="round" stroke-linejoin="round"/>
<path d="M471.844 366.06C474.322 361.504 477.872 357.62 482.187 354.742" stroke="#171717" stroke-width="3.63" stroke-linecap="round" stroke-linejoin="round"/>
<path d="M444.548 341.64C442.906 338.325 440.375 335.531 437.238 333.57" stroke="#171717" stroke-width="3.63" stroke-linecap="round" stroke-linejoin="round"/>
<path d="M436.039 341.608L445.139 331.924" stroke="#171717" stroke-width="3.63" stroke-linecap="round" stroke-linejoin="round"/>
<path d="M467.934 288.671L462.24 277.853" stroke="#171717" stroke-width="3.63" stroke-linecap="round" stroke-linejoin="round"/>
<path d="M460 288.139L468.558 280.758" stroke="#171717" stroke-width="3.63" stroke-linecap="round" stroke-linejoin="round"/>
<path d="M577.98 368.29L571.88 357.382" stroke="url(#paint11_linear_348_1422)" stroke-width="3.63" stroke-linecap="round" stroke-linejoin="round"/>
<path d="M567.57 365.533C572.267 363.286 576.512 360.198 580.096 356.423" stroke="url(#paint12_linear_348_1422)" stroke-width="3.63" stroke-linecap="round" stroke-linejoin="round"/>
<path d="M541.464 344.433L535.813 330.183" stroke="url(#paint13_linear_348_1422)" stroke-width="3.63" stroke-linecap="round" stroke-linejoin="round"/>
<path d="M530.382 340.754L543.037 332.993" stroke="url(#paint14_linear_348_1422)" stroke-width="3.63" stroke-linecap="round" stroke-linejoin="round"/>
<path d="M571.735 302.292C570.946 299.031 569.512 295.962 567.519 293.264" stroke="url(#paint15_linear_348_1422)" stroke-width="3.63" stroke-linecap="round" stroke-linejoin="round"/>
<path d="M564.175 300.662L576.262 294.071" stroke="url(#paint16_linear_348_1422)" stroke-width="3.63" stroke-linecap="round" stroke-linejoin="round"/>
<g opacity="0.1">
<path d="M472.435 53.1153C459.981 55.9413 450.116 69.5073 444.635 80.2863C438.31 92.6414 434.955 106.301 434.835 120.18C434.708 148.522 451.406 174.518 474.998 189.373C481.72 193.583 488.983 196.86 496.587 199.116C503.928 201.296 514.277 204.281 521.351 200.468C526.986 197.431 526.279 189.582 521.351 186.381C517.816 184.081 513.706 184.397 509.688 183.74C499.137 181.972 489.134 177.8 480.454 171.547C468.757 163.387 459.991 151.685 455.448 138.166C451.154 124.55 451.01 109.964 455.034 96.2663C456.997 89.331 459.953 82.7164 463.812 76.6283C467.812 70.4283 473.138 64.9783 476.512 58.4233C476.85 57.8013 477.001 57.0945 476.945 56.3886C476.89 55.6826 476.63 55.0081 476.199 54.4467C475.767 53.8854 475.182 53.4616 474.514 53.2266C473.846 52.9917 473.124 52.9558 472.436 53.1233L472.435 53.1153Z" fill="#171717"/>
</g>
<g opacity="0.1">
<path d="M342.9 378.165C337.417 375.895 331.771 382.329 328.448 385.859C324.263 390.306 321.511 398.241 321.053 404.238C320.01 417.894 328.564 431.221 340.245 437.672C349.776 442.937 358.369 428.061 348.745 423.124C340.845 419.071 336.81 412.258 336.445 403.509C336.37 399.311 337.357 395.162 339.314 391.447C341.035 387.82 345.091 385.447 345.099 381.057C345.081 380.406 344.858 379.776 344.464 379.258C344.069 378.739 343.522 378.357 342.899 378.165H342.9Z" fill="#171717"/>
</g>
<g opacity="0.1">
<path d="M348.948 443.678C344.82 466.503 343.892 489.711 342.735 512.862L339.253 582.517C338.093 605.733 336.977 628.951 335.905 652.171C334.948 672.66 333.625 693.193 334.091 713.714C334.97 752.499 343.559 791.297 371.552 819.822C398.723 847.509 436.398 862.436 471.857 876.283C494.745 885.222 518.08 893.069 541.595 900.183C565.633 907.458 590.121 914.554 614.858 919.015C624.558 920.765 628.814 906.688 618.995 904.008C598.31 898.363 577.469 893.454 556.916 887.293C536.363 881.132 516.05 874.279 495.966 866.767C477.15 859.73 458.35 852.423 440.114 843.981C424.084 836.561 408.083 828.081 394.394 816.807C380.778 805.591 369.666 791.871 362.802 775.526C355.717 758.655 352.975 740.207 352.075 722.045C351.133 703.065 352.112 684.064 353.004 665.104C354.065 642.55 355.155 619.997 356.142 597.439L359.454 521.815C360.571 496.315 362.354 470.653 360.181 445.195C359.674 439.257 350.181 436.868 348.948 443.675V443.678Z" fill="#171717"/>
</g>
</g>
<defs>
<linearGradient id="paint0_linear_348_1422" x1="518.802" y1="484.894" x2="518.802" y2="919.318" gradientUnits="userSpaceOnUse">
<stop stop-color="#42E670"/>
<stop offset="1" stop-color="#07AA50"/>
</linearGradient>
<linearGradient id="paint1_linear_348_1422" x1="557.207" y1="94.6533" x2="557.207" y2="156.923" gradientUnits="userSpaceOnUse">
<stop stop-color="#42E670"/>
<stop offset="1" stop-color="#07AA50"/>
</linearGradient>
<linearGradient id="paint2_linear_348_1422" x1="519.076" y1="40.6445" x2="519.076" y2="121.247" gradientUnits="userSpaceOnUse">
<stop stop-color="#42E670"/>
<stop offset="1" stop-color="#07AA50"/>
</linearGradient>
<linearGradient id="paint3_linear_348_1422" x1="505.097" y1="121.858" x2="505.097" y2="203.475" gradientUnits="userSpaceOnUse">
<stop stop-color="#42E670"/>
<stop offset="1" stop-color="#07AA50"/>
</linearGradient>
<linearGradient id="paint4_linear_348_1422" x1="474.996" y1="81.9385" x2="474.996" y2="158.021" gradientUnits="userSpaceOnUse">
<stop stop-color="#42E670"/>
<stop offset="1" stop-color="#07AA50"/>
</linearGradient>
<linearGradient id="paint5_linear_348_1422" x1="454.566" y1="316.277" x2="454.566" y2="379.348" gradientUnits="userSpaceOnUse">
<stop stop-color="#42E670"/>
<stop offset="1" stop-color="#07AA50"/>
</linearGradient>
<linearGradient id="paint6_linear_348_1422" x1="464.234" y1="240.636" x2="464.234" y2="307.155" gradientUnits="userSpaceOnUse">
<stop stop-color="#42E670"/>
<stop offset="1" stop-color="#07AA50"/>
</linearGradient>
<linearGradient id="paint7_linear_348_1422" x1="384.78" y1="258.434" x2="384.78" y2="321.261" gradientUnits="userSpaceOnUse">
<stop stop-color="#42E670"/>
<stop offset="1" stop-color="#07AA50"/>
</linearGradient>
<linearGradient id="paint8_linear_348_1422" x1="380.118" y1="344.467" x2="380.118" y2="377.501" gradientUnits="userSpaceOnUse">
<stop stop-color="#42E670"/>
<stop offset="1" stop-color="#07AA50"/>
</linearGradient>
<linearGradient id="paint9_linear_348_1422" x1="353.768" y1="211.747" x2="353.768" y2="249.359" gradientUnits="userSpaceOnUse">
<stop stop-color="#42E670"/>
<stop offset="1" stop-color="#07AA50"/>
</linearGradient>
<linearGradient id="paint10_linear_348_1422" x1="306.968" y1="240.806" x2="306.968" y2="292.177" gradientUnits="userSpaceOnUse">
<stop stop-color="#42E670"/>
<stop offset="1" stop-color="#07AA50"/>
</linearGradient>
<linearGradient id="paint11_linear_348_1422" x1="574.93" y1="357.382" x2="574.93" y2="368.29" gradientUnits="userSpaceOnUse">
<stop stop-color="#42E670"/>
<stop offset="1" stop-color="#07AA50"/>
</linearGradient>
<linearGradient id="paint12_linear_348_1422" x1="573.833" y1="356.423" x2="573.833" y2="365.533" gradientUnits="userSpaceOnUse">
<stop stop-color="#42E670"/>
<stop offset="1" stop-color="#07AA50"/>
</linearGradient>
<linearGradient id="paint13_linear_348_1422" x1="538.639" y1="330.183" x2="538.639" y2="344.433" gradientUnits="userSpaceOnUse">
<stop stop-color="#42E670"/>
<stop offset="1" stop-color="#07AA50"/>
</linearGradient>
<linearGradient id="paint14_linear_348_1422" x1="536.709" y1="332.993" x2="536.709" y2="340.754" gradientUnits="userSpaceOnUse">
<stop stop-color="#42E670"/>
<stop offset="1" stop-color="#07AA50"/>
</linearGradient>
<linearGradient id="paint15_linear_348_1422" x1="569.627" y1="293.264" x2="569.627" y2="302.292" gradientUnits="userSpaceOnUse">
<stop stop-color="#42E670"/>
<stop offset="1" stop-color="#07AA50"/>
</linearGradient>
<linearGradient id="paint16_linear_348_1422" x1="570.218" y1="294.071" x2="570.218" y2="300.662" gradientUnits="userSpaceOnUse">
<stop stop-color="#42E670"/>
<stop offset="1" stop-color="#07AA50"/>
</linearGradient>
<clipPath id="clip0_348_1422">
<rect width="684" height="885" fill="white" transform="translate(138 38)"/>
</clipPath>
</defs>
</svg>
